<?xml version="1.0" encoding="UTF-8"?>
<svg id="Layer_2" data-name="Layer 2" xmlns="http://www.w3.org/2000/svg" viewBox="0 0 16.59 15.86">
  <defs>
    <style>
      .cls-1 {
        fill: none;
        stroke: #ccc;
        stroke-miterlimit: 10;
      }
    </style>
  </defs>
  <g id="Layer_1-2" data-name="Layer 1">
    <path class="cls-1" d="M8.58,.71l1.63,5.03c.04,.12,.16,.21,.29,.21h5.29c.29,0,.41,.37,.18,.54l-4.28,3.11c-.11,.08-.15,.21-.11,.34l1.63,5.03c.09,.28-.23,.51-.46,.34l-4.28-3.11c-.11-.08-.25-.08-.35,0l-4.28,3.11c-.24,.17-.55-.06-.46-.34l1.63-5.03c.04-.12,0-.26-.11-.34L.62,6.49c-.24-.17-.11-.54,.18-.54H6.09c.13,0,.25-.08,.29-.21L8.01,.71c.09-.28,.48-.28,.57,0Z"/>
  </g>
</svg>